# xmcd
#
# Track frame offsets:
# 150
# 16648
# 36208
# 56305
# 74059
# 91646
# 111449
# 126813
# 136013
# 153171
# 171920
# 196731
# 214156
# 234167
# 250048
# 268729
# 281289
# 296772
# 310216
#
# Disc length: 4421 seconds
#
# Revision: 0
# Processed by: cddbd v1.4PL0 Copyright (c) Steve Scherf et al.
# Submitted via: Audion 3.0.2 (http://www.panic.com/audion/)
#
DISCID=02114313
DTITLE=;lllhj - Mix
DYEAR=1900
DGENRE=
TTITLE0=hj;hj;hj
TTITLE1=j;lkh;lkjh
TTITLE2=lkjhl;kjh
TTITLE3=;jhjh
TTITLE4=kjh;kjh
TTITLE5=kjhkjh
TTITLE6=;lkjhkhjl;
TTITLE7=kjhkj;lhhk;lj
TTITLE8=kj;lkhj
TTITLE9=jklkhj
TTITLE10=k;ljhkjl
TTITLE11=kj;kj;h
TTITLE12=jkhkjh
TTITLE13=;jkk;ljh
TTITLE14=k;ljh;lkjh
TTITLE15=kjkjh
TTITLE16=kjhhkj
TTITLE17=lkjhkjh
TTITLE18=lkjhkhj
EXTD=
EXTT0=
EXTT1=
EXTT2=
EXTT3=
EXTT4=
EXTT5=
EXTT6=
EXTT7=
EXTT8=
EXTT9=
EXTT10=
EXTT11=
EXTT12=
EXTT13=
EXTT14=
EXTT15=
EXTT16=
EXTT17=
EXTT18=
PLAYORDER=
